<svg xmlns="http://www.w3.org/2000/svg" width="144.011" height="33" viewBox="0 0 144.011 33">
  <g id="Group_1" data-name="Group 1" transform="translate(-92.7 -48.7)">
    <path id="Path_1" data-name="Path 1" d="M13.046,10.418A12.149,12.149,0,0,1,4.258,6.976,11.559,11.559,0,0,1,.7-1.7a11.386,11.386,0,0,1,3.624-8.755,12.806,12.806,0,0,1,9.053-3.36,15.643,15.643,0,0,1,3.608.43,9.235,9.235,0,0,1,2.847,1.092q.53.3.232.96L18.507-7.786q-.3.662-.861.364a9.356,9.356,0,0,0-4.27-1.158A6.446,6.446,0,0,0,8.594-6.694a6.789,6.789,0,0,0-1.87,5A7.047,7.047,0,0,0,8.561,3.335a6.306,6.306,0,0,0,4.816,1.953A5.856,5.856,0,0,0,17,4.013,4.746,4.746,0,0,0,18.938.786h-5.3q-.662,0-.53-.662l.761-3.509a.728.728,0,0,1,.761-.6h9.8a.5.5,0,0,1,.563.563v1.456a12.161,12.161,0,0,1-3.442,8.854A11.417,11.417,0,0,1,13.046,10.418ZM30.853,7.009A11.626,11.626,0,0,1,27.312-1.7a11.545,11.545,0,0,1,3.558-8.689,12.391,12.391,0,0,1,8.953-3.426,12.391,12.391,0,0,1,8.953,3.426A11.545,11.545,0,0,1,52.335-1.7a11.545,11.545,0,0,1-3.558,8.689,12.391,12.391,0,0,1-8.953,3.426A12.482,12.482,0,0,1,30.853,7.009Zm25.189,3.012a.5.5,0,0,1-.563-.563V-13.579a.592.592,0,0,1,.463-.629l3.84-.96a2.805,2.805,0,0,1,.662-.132q.4,0,.4.43V-4.013a6.217,6.217,0,0,1,4.435-1.721,4.874,4.874,0,0,1,3.707,1.589,6.484,6.484,0,0,1,1.489,4.6v9a.5.5,0,0,1-.563.563H65.674a.5.5,0,0,1-.563-.563V1.746a3.606,3.606,0,0,0-.53-2.2,1.93,1.93,0,0,0-1.622-.679,3.371,3.371,0,0,0-2.118.662v9.93a.5.5,0,0,1-.563.563Zm27.307,0a.5.5,0,0,1-.563-.563V8.9a6.533,6.533,0,0,1-4.071,1.456,5.942,5.942,0,0,1-3.79-1.324A4.355,4.355,0,0,1,73.253,5.42,4.581,4.581,0,0,1,75.09,1.548,7.434,7.434,0,0,1,79.708.157a9.671,9.671,0,0,1,3.078.5V.588a2.238,2.238,0,0,0-.6-1.771A3.3,3.3,0,0,0,80.072-1.7,11.132,11.132,0,0,0,76.4-.935a.525.525,0,0,1-.761-.3L74.71-3.848q-.2-.629.3-.861a9.968,9.968,0,0,1,2.449-.712A16.866,16.866,0,0,1,80.6-5.734q3.74,0,5.445,1.556t1.7,5.428V9.458a.5.5,0,0,1-.563.563ZM80.668,6.777a4.48,4.48,0,0,0,2.118-.563V3.467a5.823,5.823,0,0,0-1.854-.3,2.787,2.787,0,0,0-1.754.513,1.586,1.586,0,0,0-.662,1.307,1.584,1.584,0,0,0,.612,1.291A2.365,2.365,0,0,0,80.668,6.777ZM91.392,9.458v-13.8a.646.646,0,0,1,.563-.728L96.092-5.7q.662-.1.662.5v1.523a5.751,5.751,0,0,1,4.535-2.052A4.764,4.764,0,0,1,104.9-4.146a6.484,6.484,0,0,1,1.489,4.6v9a.5.5,0,0,1-.563.563h-4.237a.5.5,0,0,1-.563-.563V1.746a3.606,3.606,0,0,0-.53-2.2,1.93,1.93,0,0,0-1.622-.679,3.371,3.371,0,0,0-2.118.662v9.93a.5.5,0,0,1-.563.563H91.955A.5.5,0,0,1,91.392,9.458ZM120.453-3.848v-9.731a.592.592,0,0,1,.463-.629l3.84-.96a2.805,2.805,0,0,1,.662-.132q.4,0,.4.43V9.458a.5.5,0,0,1-.563.563h-4.2q-.6,0-.6-.53V8.465a6.216,6.216,0,0,1-4.435,1.887A5.921,5.921,0,0,1,111.3,8.085a8.677,8.677,0,0,1-1.9-5.776,8.677,8.677,0,0,1,1.9-5.776,5.921,5.921,0,0,1,4.717-2.267A6.216,6.216,0,0,1,120.453-3.848ZM115.72-.141a3.54,3.54,0,0,0-.827,2.449,3.559,3.559,0,0,0,.844,2.466,2.814,2.814,0,0,0,2.2.943,4.339,4.339,0,0,0,2.516-.827V-.273a4.339,4.339,0,0,0-2.516-.827A2.842,2.842,0,0,0,115.72-.141ZM131.674,17.7a5.892,5.892,0,0,1-1.82-.232,1.3,1.3,0,0,1-.827-1.059l-.794-2.88a.436.436,0,0,1,.149-.53.657.657,0,0,1,.579-.066,5.26,5.26,0,0,0,1.655.3,3.115,3.115,0,0,0,1.8-.612,3.28,3.28,0,0,0,1.241-1.672l.3-.927L128.331-4.642a.58.58,0,0,1,.017-.563.561.561,0,0,1,.48-.2h4.4a.717.717,0,0,1,.761.53l2.615,8.043,2.78-8.043a.717.717,0,0,1,.761-.53h4.005a.561.561,0,0,1,.48.2.58.58,0,0,1,.017.563l-6.554,16.781a10.362,10.362,0,0,1-2.648,4.071A5.483,5.483,0,0,1,131.674,17.7Z" transform="translate(92 64)"/>
    <path id="light-bolt-svgrepo-com" d="M105.225,6.086a.934.934,0,0,0-.817-.481h-2.254l.383-4.593a.934.934,0,0,0-1.708-.6L96.157,7.422a.934.934,0,0,0,.777,1.452h2.261l-.39,5.066a.934.934,0,0,0,1.723.567L105.2,7.035A.934.934,0,0,0,105.225,6.086Z" transform="translate(31.123 54.989)" fill="#fff"/>
  </g>
</svg>
