<svg xmlns="http://www.w3.org/2000/svg" width="427.265" height="152" viewBox="0 0 427.265 152">
  <g id="Group_2" data-name="Group 2" transform="translate(-458.5 -562)">
    <path id="Path_2" data-name="Path 2" d="M28.051-14.469a86.26,86.26,0,0,1,9.469-.653c6.367,0,11.592,2.122,15.184,6.2C56.133-5.163,57.929-.1,57.929,6.429c0,7.673-2.122,13.224-5.878,16.49-4.082,3.592-9.469,4.735-14.857,4.735a24.357,24.357,0,0,1-9.143-1.469ZM19.4-31.286c-8.327,1.469-12.9,4.9-12.9,14.531V72.551A10.7,10.7,0,0,0,17.276,83c5.714,0,10.776-4.735,10.776-10.449V43.98A42.255,42.255,0,0,0,39.48,45.286c11.429,0,23.184-3.592,31.02-12.245C75.888,27,79.316,18.184,79.316,6.429S75.4-14.469,69.031-20.837c-8-8-19.918-11.755-33.8-11.755A91.26,91.26,0,0,0,19.4-31.286ZM91.561,6.429c0,24.327,17.8,38.857,40.327,38.857s40.49-14.531,40.49-38.857-17.959-39.02-40.49-39.02S91.561-17.9,91.561,6.429Zm139.1,19.265c-6.857,0-13.388-1.306-18.122-5.061-3.429-2.939-5.878-7.51-5.878-14.2,0-5.388,1.306-9.8,3.918-13.388a18.357,18.357,0,0,1,15.02-7.184A38.772,38.772,0,0,1,235.561-13V25.694Zm14.2,17.959c6.531,0,12.245-3.918,12.245-11.592V-58.388A10.628,10.628,0,0,0,246.337-69a10.628,10.628,0,0,0-10.776,10.612v27.1A41.75,41.75,0,0,0,224.3-32.755c-14.857,0-25.143,5.551-31.51,13.388-5.714,7.347-8.163,16.816-8.163,26.122,0,12.082,4.408,21.061,11.592,27.1,8,6.694,19.429,9.8,32.163,9.8Zm92.082-20.571c-5.388,0-9.633,5.061-21.061,5.061-10.612,0-17.306-5.388-19.265-15.347h40.816c6.694,0,10.612-4.408,10.612-12.082a32.977,32.977,0,0,0-9.306-23.51c-5.878-5.878-14.531-9.8-26.612-9.8-11.755,0-21.061,3.918-27.592,10.449-6.531,6.694-10.612,16.327-10.612,27.592,0,11.755,3.918,21.714,10.939,28.9,6.857,7.02,16.98,10.939,29.551,10.939,7.184,0,14.531-.816,21.224-3.592,6.2-2.449,9.306-5.551,9.306-9.959C344.949,27,341.52,23.082,336.949,23.082Zm-40.49-24.49c1.469-8.653,6.857-14.2,15.837-14.2,8.816,0,14.2,6.367,14.857,14.2Zm126.2,24.49c-5.388,0-9.633,5.061-21.061,5.061-10.612,0-17.306-5.388-19.265-15.347h40.816c6.694,0,10.612-4.408,10.612-12.082a32.977,32.977,0,0,0-9.306-23.51c-5.878-5.878-14.531-9.8-26.612-9.8-11.755,0-21.061,3.918-27.592,10.449-6.531,6.694-10.612,16.327-10.612,27.592,0,11.755,3.918,21.714,10.939,28.9,6.857,7.02,16.98,10.939,29.551,10.939,7.184,0,14.531-.816,21.225-3.592,6.2-2.449,9.306-5.551,9.306-9.959C430.663,27,427.235,23.082,422.663,23.082Zm-40.49-24.49c1.469-8.653,6.857-14.2,15.837-14.2,8.816,0,14.2,6.367,14.857,14.2Z" transform="translate(452 631)"/>
    <path id="light-bolt-svgrepo-com" d="M125.02,19.147a2.94,2.94,0,0,0-2.571-1.514h-7.092l1.2-14.45a2.939,2.939,0,0,0-5.374-1.874L96.493,23.35a2.939,2.939,0,0,0,2.445,4.569h7.112l-1.226,15.938a2.939,2.939,0,0,0,5.422,1.783l14.694-23.51a2.939,2.939,0,0,0,.079-2.983Z" transform="translate(472.704 613.836)" fill="#fff"/>
  </g>
</svg>
